<mxfile host="app.diagrams.net" modified="2023-07-10T13:37:52.729Z" agent="Mozilla/5.0 (Macintosh; Intel Mac OS X 10.15; rv:109.0) Gecko/20100101 Firefox/114.0" version="21.6.1" etag="0b82oBaJb3SHgIQyFpFS" type="github">
  <diagram name="PÃ¡gina-1" id="E2DeyIWBvKsosaApuANX">
    <mxGraphModel>
      <root>
        <mxCell id="0" />
        <mxCell id="1" parent="0" />
      </root>
    </mxGraphModel>
  </diagram>
</mxfile>
